<svg xmlns="http://www.w3.org/2000/svg" width="31" height="31" fill="none" viewBox="0 0 31 31"><path fill="#E4E4E4" d="M15.296 0c-4.154 0-4.675.018-6.307.092-1.628.075-2.74.333-3.712.71a7.49 7.49 0 0 0-2.71 1.765A7.508 7.508 0 0 0 .804 5.276c-.38.972-.638 2.084-.71 3.712C.018 10.618 0 11.14 0 15.294s.018 4.673.092 6.305c.075 1.628.333 2.74.711 3.712a7.494 7.494 0 0 0 1.764 2.71 7.489 7.489 0 0 0 2.708 1.764c.973.378 2.085.636 3.713.71 1.631.075 2.152.093 6.306.093s4.673-.018 6.305-.092c1.628-.075 2.74-.332 3.714-.71a7.483 7.483 0 0 0 2.707-1.766 7.508 7.508 0 0 0 1.765-2.709c.376-.973.634-2.084.71-3.712.074-1.631.093-2.151.093-6.305s-.019-4.675-.092-6.306c-.077-1.628-.335-2.74-.71-3.712a7.507 7.507 0 0 0-1.766-2.71A7.475 7.475 0 0 0 25.312.804c-.975-.378-2.087-.636-3.716-.71C19.966.017 19.447 0 15.291 0h.005Zm-1.372 2.756h1.372c4.083 0 4.567.015 6.18.088 1.49.068 2.3.317 2.84.527a4.73 4.73 0 0 1 1.757 1.144 4.746 4.746 0 0 1 1.144 1.758c.21.539.46 1.348.527 2.84.073 1.612.09 2.096.09 6.178 0 4.081-.017 4.566-.09 6.178-.068 1.491-.317 2.3-.527 2.839a4.729 4.729 0 0 1-1.144 1.757 4.731 4.731 0 0 1-1.758 1.144c-.538.21-1.348.458-2.84.527-1.612.073-2.096.089-6.18.089-4.083 0-4.567-.016-6.18-.09-1.49-.068-2.3-.317-2.84-.527a4.737 4.737 0 0 1-1.758-1.144 4.74 4.74 0 0 1-1.145-1.758c-.21-.538-.459-1.347-.527-2.838-.073-1.613-.088-2.097-.088-6.181s.015-4.566.088-6.178c.069-1.492.318-2.3.527-2.84A4.739 4.739 0 0 1 4.517 4.51a4.747 4.747 0 0 1 1.758-1.144c.54-.21 1.35-.46 2.84-.528 1.411-.063 1.958-.083 4.809-.086v.004Zm9.535 2.54a1.835 1.835 0 1 0 0 3.671 1.835 1.835 0 0 0 0-3.672ZM15.296 7.44a7.855 7.855 0 1 0 0 15.709 7.855 7.855 0 0 0 0-15.71Zm0 2.756a5.098 5.098 0 1 1 0 10.196 5.098 5.098 0 0 1 0-10.196Z"/></svg>