<svg xmlns="http://www.w3.org/2000/svg" width="52" height="36" fill="none" viewBox="0 0 52 36"><mask id="a" width="53" height="36" x="-.5" y="0" fill="#000" maskUnits="userSpaceOnUse"><path fill="#fff" d="M-.5 0h53v36h-53z"/><path fill-rule="evenodd" d="M.5 35h.96V18.923H23.5V35h12.069c4.602 0 8.4-1.651 11.393-4.954C49.987 26.776 51.5 22.76 51.5 18s-1.513-8.791-4.538-12.094C43.97 2.636 40.172 1 35.57 1H23.5v17.049H1.46V1H.5v34Zm24-.874V1.874h11.069c4.345 0 7.917 1.555 10.717 4.663 2.832 3.109 4.248 6.93 4.248 11.463 0 4.533-1.416 8.354-4.248 11.463-2.8 3.108-6.372 4.663-10.717 4.663H24.5Z" clip-rule="evenodd"/></mask><path fill="#FDFDFD" fill-rule="evenodd" d="M.5 35h.96V18.923H23.5V35h12.069c4.602 0 8.4-1.651 11.393-4.954C49.987 26.776 51.5 22.76 51.5 18s-1.513-8.791-4.538-12.094C43.97 2.636 40.172 1 35.57 1H23.5v17.049H1.46V1H.5v34Zm24-.874V1.874h11.069c4.345 0 7.917 1.555 10.717 4.663 2.832 3.109 4.248 6.93 4.248 11.463 0 4.533-1.416 8.354-4.248 11.463-2.8 3.108-6.372 4.663-10.717 4.663H24.5Z" clip-rule="evenodd"/><path fill="#FDFDFD" d="M1.46 35v.5h.5V35h-.5ZM.5 35H0v.5h.5V35Zm.96-16.077v-.5h-.5v.5h.5Zm22.04 0h.5v-.5h-.5v.5ZM23.5 35H23v.5h.5V35Zm23.462-4.954-.367-.34-.003.004.37.336Zm0-24.14-.369.337.37-.337ZM35.57 1V.5 1ZM23.5 1V.5H23V1h.5Zm0 17.049v.5h.5v-.5h-.5Zm-22.04 0h-.5v.5h.5v-.5ZM1.46 1h.5V.5h-.5V1ZM.5 1V.5H0V1h.5Zm24 .874v-.5H24v.5h.5Zm0 32.252H24v.5h.5v-.5ZM35.569 1.874v-.5.5Zm10.717 4.663-.371.335.002.002.37-.337ZM50.534 18h.5-.5Zm-4.248 11.463-.37-.337-.001.002.371.335ZM1.46 34.5H.5v1h.96v-1Zm-.5-15.577V35h1V18.923h-1Zm22.54-.5H1.46v1H23.5v-1Zm-.5.5V35h1V18.923h-1Zm.5 16.577h.04v-1h-.04v1Zm.04 0h.96v-1h-.96v1Zm.96 0h11.069v-1H24.5v1Zm11.069 0c4.738 0 8.672-1.707 11.764-5.119l-.741-.671c-2.895 3.194-6.557 4.79-11.023 4.79v1Zm11.76-5.115C50.446 27.015 52 22.876 52 18h-1c0 4.644-1.471 8.535-4.405 11.706l.734.68ZM52 18c0-4.876-1.554-9.03-4.67-12.432l-.737.675C49.53 9.448 51 13.356 51 18h1ZM47.33 5.568C44.24 2.19 40.307.5 35.57.5v1c4.468 0 8.13 1.58 11.024 4.743l.738-.675ZM35.57.5H23.5v1h12.069v-1ZM23 1v17.049h1V1h-1ZM1.46 18.549H23.5v-1H1.46v1ZM.96 1v17.049h1V1h-1Zm-.46.5h.96v-1H.5v1ZM1 35V1H0v34h1ZM24 1.874v32.252h1V1.874h-1Zm.5.5h11.069v-1H24.5v1Zm11.069 0c4.21 0 7.645 1.499 10.346 4.498l.743-.67c-2.9-3.218-6.609-4.828-11.089-4.828v1Zm10.348 4.5C48.658 9.883 50.034 13.58 50.034 18h1c0-4.647-1.455-8.591-4.378-11.8l-.74.674ZM50.034 18c0 4.42-1.376 8.117-4.117 11.126l.739.674c2.923-3.209 4.379-7.153 4.379-11.8h-1Zm-4.12 11.128c-2.7 2.999-6.136 4.498-10.345 4.498v1c4.48 0 8.19-1.61 11.089-4.828l-.743-.67ZM35.57 33.626H24.5v1h11.069v-1Z" mask="url(#a)"/></svg>
