<svg xmlns="http://www.w3.org/2000/svg" width="80" height="54" fill="none" viewBox="0 0 80 54"><path fill="#FDFDFD" fill-rule="evenodd" d="M0 53.333h1.506V28.114h34.572v25.22H55.01c7.219 0 13.176-2.591 17.871-7.772C77.627 40.432 80 34.133 80 26.667c0-7.467-2.373-13.79-7.119-18.972C68.186 2.565 62.23 0 55.01 0H36.078v26.743H1.506V0H0v53.333Zm37.647-1.371V1.372H55.01c6.815 0 12.419 2.438 16.811 7.314 4.443 4.876 6.664 10.87 6.664 17.98 0 7.112-2.221 13.105-6.664 17.982-4.392 4.876-9.996 7.314-16.811 7.314H37.647Z" clip-rule="evenodd"/></svg>