<svg xmlns="http://www.w3.org/2000/svg" width="37" height="34" fill="none" viewBox="0 0 37 34"><path fill="#C5C5C5" d="M14.23 29.898c-1.089 0-.904-.434-1.279-1.53L9.83 18.886 34.374 1.759"/><path fill="#9C9C9C" d="M14.148 29.897c.88 0 1.76-.879 1.76-.879l5.223-3.601-6.382-3.363"/><path fill="#DBDCDD" d="M14.739 22.052 27.773 32.96c1.487.93 2.56.448 2.931-1.564l5.306-28.32c.544-2.468-.83-3.587-2.253-2.855L2.601 13.83c-2.126.966-2.114 2.31-.387 2.909l6.252 2.21a3.55 3.55 0 0 0 3.247-.459L28.72 6.337c.873-.6 1.675-.278 1.017.384"/></svg>